<mxfile host="app.diagrams.net" modified="2024-02-12T21:42:58.008Z" agent="Mozilla/5.0 (Windows NT 10.0; Win64; x64) AppleWebKit/537.36 (KHTML, like Gecko) Chrome/121.0.0.0 Safari/537.36" etag="NnWWnVvMT8aohsoCFUrj" version="23.1.2" type="device">
  <diagram name="Page-1" id="ALb_4AF9Ldr6wTQ1PZPL">
    <mxGraphModel dx="1050" dy="565" grid="1" gridSize="10" guides="1" tooltips="1" connect="1" arrows="1" fold="1" page="1" pageScale="1" pageWidth="850" pageHeight="1100" math="0" shadow="0">
      <root>
        <mxCell id="0" />
        <mxCell id="1" parent="0" />
        <mxCell id="4Z655MRgvzt-ojcVw1WA-1" value="" style="rounded=0;whiteSpace=wrap;html=1;" vertex="1" parent="1">
          <mxGeometry x="190" y="20" width="490" height="540" as="geometry" />
        </mxCell>
        <mxCell id="4Z655MRgvzt-ojcVw1WA-2" value="user&amp;nbsp;&lt;br&gt;" style="shape=umlActor;html=1;verticalLabelPosition=bottom;verticalAlign=top;align=center;" vertex="1" parent="1">
          <mxGeometry x="80" y="110" width="50" height="160" as="geometry" />
        </mxCell>
        <mxCell id="4Z655MRgvzt-ojcVw1WA-3" value="chatbot" style="shape=umlActor;verticalLabelPosition=bottom;verticalAlign=top;html=1;outlineConnect=0;" vertex="1" parent="1">
          <mxGeometry x="720" y="110" width="80" height="160" as="geometry" />
        </mxCell>
        <mxCell id="4Z655MRgvzt-ojcVw1WA-4" value="user request" style="ellipse;whiteSpace=wrap;html=1;" vertex="1" parent="1">
          <mxGeometry x="310" y="60" width="140" height="70" as="geometry" />
        </mxCell>
        <mxCell id="4Z655MRgvzt-ojcVw1WA-5" value="" style="edgeStyle=none;html=1;endArrow=block;endFill=0;endSize=12;verticalAlign=bottom;rounded=0;exitX=0.488;exitY=0.574;exitDx=0;exitDy=0;exitPerimeter=0;entryX=0;entryY=0.5;entryDx=0;entryDy=0;" edge="1" parent="1" source="4Z655MRgvzt-ojcVw1WA-2" target="4Z655MRgvzt-ojcVw1WA-4">
          <mxGeometry width="160" relative="1" as="geometry">
            <mxPoint x="340" y="290" as="sourcePoint" />
            <mxPoint x="500" y="290" as="targetPoint" />
          </mxGeometry>
        </mxCell>
        <mxCell id="4Z655MRgvzt-ojcVw1WA-6" value="" style="edgeStyle=none;html=1;endArrow=block;endFill=0;endSize=12;verticalAlign=bottom;rounded=0;exitX=0.5;exitY=0.5;exitDx=0;exitDy=0;exitPerimeter=0;entryX=1;entryY=0.5;entryDx=0;entryDy=0;" edge="1" parent="1" source="4Z655MRgvzt-ojcVw1WA-3" target="4Z655MRgvzt-ojcVw1WA-4">
          <mxGeometry width="160" relative="1" as="geometry">
            <mxPoint x="340" y="290" as="sourcePoint" />
            <mxPoint x="500" y="290" as="targetPoint" />
          </mxGeometry>
        </mxCell>
      </root>
    </mxGraphModel>
  </diagram>
</mxfile>
